HIERARCHY
ROOT Hips
{
  OFFSET 13.6774 106.653 -34.4427
  CHANNELS 6 Xposition Yposition Zposition Zrotation Xrotation Yrotation
  JOINT ToSpine
  {
    OFFSET -2.69724 7.43032 -0.144315
    CHANNELS 3 Zrotation Xrotation Yrotation
    JOINT Spine
    {
      OFFSET -0.0310711 10.7595 1.96963
      CHANNELS 3 Zrotation Xrotation Yrotation
      JOINT Spine1
      {
        OFFSET 19.9056 3.91189 0.764692
        CHANNELS 3 Zrotation Xrotation Yrotation
        JOINT Neck
        {
          OFFSET 25.9749 7.03908 -0.130764
          CHANNELS 3 Zrotation Xrotation Yrotation
          JOINT Head
          {
            OFFSET 9.52751 0.295786 -0.907742
            CHANNELS 3 Zrotation Xrotation Yrotation
            End Site
            {
              OFFSET 16.4037 0.713936 2.7358
            }
          }
        }
        JOINT LeftShoulder
        {
          OFFSET 17.7449 4.33886 11.7777
          CHANNELS 3 Zrotation Xrotation Yrotation
          JOINT LeftArm
          {
            OFFSET 0.911315 1.27913 9.80584
            CHANNELS 3 Zrotation Xrotation Yrotation
            JOINT LeftForeArm
            {
              OFFSET 28.6126 1.18197 -3.53199
              CHANNELS 3 Zrotation Xrotation Yrotation
              JOINT LeftHand
              {
                OFFSET 27.5088 0.0218783 0.327423
                CHANNELS 3 Zrotation Xrotation Yrotation
                End Site
                {
                  OFFSET 18.6038 -0.000155887 0.382096
                }
              }
            }
          }
        }
        JOINT RightShoulder
        {
          OFFSET 17.1009 2.89543 -12.2328
          CHANNELS 3 Zrotation Xrotation Yrotation
          JOINT RightArm
          {
            OFFSET 1.4228 0.178766 -10.211
            CHANNELS 3 Zrotation Xrotation Yrotation
            JOINT RightForeArm
            {
              OFFSET 28.733 1.87905 2.64907
              CHANNELS 3 Zrotation Xrotation Yrotation
              JOINT RightHand
              {
                OFFSET 27.4588 0.290562 -0.101845
                CHANNELS 3 Zrotation Xrotation Yrotation
                End Site
                {
                  OFFSET 17.8396 -0.255518 -0.000602873
                }
              }
            }
          }
        }
      }
    }
  }
  JOINT LeftUpLeg
  {
    OFFSET -5.61296 -2.22332 -10.2353
    CHANNELS 3 Zrotation Xrotation Yrotation
    JOINT LeftLeg
    {
      OFFSET 2.56703 -44.7417 -7.93097
      CHANNELS 3 Zrotation Xrotation Yrotation
      JOINT LeftFoot
      {
        OFFSET 3.16933 -46.5642 -3.96578
        CHANNELS 3 Zrotation Xrotation Yrotation
        JOINT LeftToeBase
        {
          OFFSET 0.346054 -6.02161 12.8035
          CHANNELS 3 Zrotation Xrotation Yrotation
          End Site
          {
            OFFSET 0.134235 -1.35082 5.13018
          }
        }
      }
    }
  }
  JOINT RightUpLeg
  {
    OFFSET -5.7928 -1.72406 10.6446
    CHANNELS 3 Zrotation Xrotation Yrotation
    JOINT RightLeg
    {
      OFFSET -2.57161 -44.7178 -7.85259
      CHANNELS 3 Zrotation Xrotation Yrotation
      JOINT RightFoot
      {
        OFFSET -3.10148 -46.5936 -4.03391
        CHANNELS 3 Zrotation Xrotation Yrotation
        JOINT RightToeBase
        {
          OFFSET -0.0828122 -6.13587 12.8035
          CHANNELS 3 Zrotation Xrotation Yrotation
          End Site
          {
            OFFSET -0.131328 -1.35082 5.13018
          }
        }
      }
    }
  }
}
MOTION
Frames: 10
Frame Time: 0.03333333333333333
0.0000 93.1000 0.0000 64.1426 -41.0110 -21.4846 -71.1837 0.7813 87.7928 93.5079 69.0954 -7.1584 5.5349 20.1035 -3.7846 -136.1901 26.9413 -176.5250 174.2717 63.9973 -148.7788 -2.0997 -26.9239 -33.9939 -49.1582 -1.0623 -159.1809 14.7837 21.1492 -36.4528 -2.1921 -0.4284 1.9547 -4.0186 12.0062 44.7360 -61.3227 -3.0155 124.4870 4.7918 -31.6336 20.0461 3.2047 0.4581 1.7206 -54.6739 20.2387 107.4026 -5.9986 55.1183 -13.3218 -3.6876 -23.0428 -2.8384 9.3407 -20.0247 23.7892 -17.0749 -19.0933 90.9516 2.9236 55.9830 -0.0618 -5.6307 -2.5375 0.2863 1.0949 -10.3649 -6.7502 
0.0000 93.1000 0.0000 65.0029 -40.3054 -20.9229 -71.1916 0.5550 87.4555 94.2425 69.1465 -8.2360 5.0619 19.5726 -2.2813 -137.2437 27.1431 -176.5137 174.1383 64.3713 -148.7454 -2.2850 -27.2472 -33.1529 -48.9413 -0.2925 -159.2855 15.1540 21.7489 -36.6959 -1.7996 -0.3927 1.7396 -4.0847 12.2185 45.3067 -61.0957 -3.0421 124.3058 5.6165 -31.2086 20.0951 2.8995 0.4149 1.8444 -54.3003 20.1205 107.0762 -6.2827 56.0058 -12.1704 -4.1714 -22.9331 -2.7411 9.1928 -19.8828 23.1434 -17.1353 -20.1430 91.1204 3.0185 56.2305 -0.2002 -5.4031 -2.4822 -0.0290 1.1655 -9.8019 -5.9781 
0.0000 93.1000 0.0000 65.0577 -39.6949 -20.3607 -71.3025 0.7944 87.3870 94.3755 69.0739 -8.3876 4.4749 19.0340 -1.7419 -137.7813 27.1028 -176.6987 173.6471 63.9616 -148.4612 -1.9753 -26.8892 -31.9295 -48.7618 -0.4433 -160.2112 15.9619 22.2718 -37.5849 -1.8323 -0.6569 1.4170 -4.1267 11.8317 45.7091 -59.1493 -1.9836 124.5389 6.3675 -28.0606 20.9378 2.7205 0.7105 1.9735 -53.5132 20.3463 107.1663 -6.9494 57.0093 -12.0975 -4.1321 -22.7523 -2.6307 9.0281 -19.8994 22.7932 -17.0628 -20.0481 91.1575 3.3123 56.2684 0.0148 -4.5233 -2.8744 -0.0697 0.9206 -9.3434 -7.4233 
0.0000 93.1000 0.0000 64.8078 -40.9513 -21.0131 -71.2388 1.2021 87.6043 93.1864 69.2805 -7.0243 4.5291 19.0803 -1.4821 -137.7192 26.4582 -177.6524 173.6231 63.7738 -147.9611 -1.6451 -26.2526 -31.2069 -50.5070 0.0481 -160.1409 15.8351 22.2908 -37.8418 -1.1629 -0.5282 1.2187 -3.7827 11.2930 46.0662 -56.3740 0.0920 123.9554 8.8664 -25.3619 22.6415 2.7621 0.5184 2.1064 -52.8328 20.8626 107.0936 -7.0653 58.5314 -13.2653 -4.0206 -21.7080 -3.1298 10.3589 -21.4958 25.1156 -15.9804 -19.2179 92.0043 3.6672 56.6144 0.9942 -4.5854 -3.3054 0.6146 0.7486 -8.2363 -10.0261 
0.0000 93.1000 0.0000 64.4501 -40.5185 -21.3866 -71.2107 0.7630 87.7975 92.4784 69.3222 -7.2937 4.7879 19.2023 -2.1321 -136.9737 26.1610 -178.4596 174.6069 63.5271 -149.3848 -1.7254 -26.3005 -30.8166 -52.1353 -0.0772 -160.2008 16.8520 21.8303 -39.8525 -1.1747 -0.4796 1.8290 -4.0761 11.3046 45.7656 -57.2626 -1.0093 122.3081 12.3900 -24.1134 28.3661 2.2520 0.4451 1.6919 -52.9789 21.1368 106.8756 -7.2642 59.2703 -13.0310 -3.7633 -21.9994 -2.7378 10.4195 -21.1084 25.0511 -15.9779 -18.2737 92.3417 3.8017 58.3129 -0.3704 -5.2832 -2.9152 0.1913 0.6066 -9.0966 -9.7691 
0.0000 93.1000 0.0000 64.0819 -40.2121 -20.2861 -71.0237 1.1983 87.8779 92.3723 68.8483 -6.9839 4.8408 19.1184 -1.7535 -137.1642 26.8744 -179.4112 175.8071 64.0864 -149.3423 -1.3504 -25.5078 -29.8510 -54.1881 0.0140 -161.0681 18.3970 21.8315 -43.5120 -0.6505 -0.4101 0.8166 -3.4891 11.0656 44.8382 -61.2095 -3.1165 121.4450 17.1604 -24.8202 36.9852 2.5786 0.3834 2.1989 -52.9281 21.2303 106.2436 -7.0132 58.2046 -13.0099 -3.7561 -22.0481 -3.3134 9.8472 -20.4982 24.9273 -15.4092 -18.8223 90.9805 4.2283 59.2753 -0.1493 -5.2911 -4.6764 1.2200 1.2526 -7.8312 -11.2024 
0.0000 93.1000 0.0000 64.1282 -38.8872 -20.8544 -71.0495 1.3083 87.9107 92.2712 68.0808 -6.9838 3.7897 18.6069 -1.2684 -137.1473 26.5117 -179.4158 175.4712 65.0643 -149.4514 -1.1696 -24.3853 -27.6323 -57.0697 0.8038 -163.0376 19.8812 20.2339 -47.6605 -0.7546 -0.3278 0.4578 -3.2434 10.6612 45.2431 -65.0914 -3.7882 118.5759 21.7746 -21.6462 47.7449 2.6475 0.2618 2.3662 -53.0495 21.6161 104.9131 -7.0639 56.2965 -14.7532 -4.3152 -20.6570 -3.3947 10.1034 -20.7364 25.0360 -15.0563 -19.0958 89.5816 4.8080 60.8047 -0.5123 -5.7602 -6.1099 1.9081 2.4584 -8.5689 -12.1483 
0.0000 93.1000 0.0000 63.2155 -38.5088 -21.5002 -71.0060 0.9778 88.1794 93.3197 67.2951 -7.0768 3.2114 18.3505 -1.9136 -136.1272 25.9157 -179.7778 176.4781 63.7914 -148.8291 -0.8599 -22.3888 -24.1192 -60.3864 2.5541 -164.3061 18.7236 15.2056 -51.7509 -0.3997 -0.4779 0.3473 -3.7060 11.1558 46.5186 -67.1272 -3.1003 117.4493 21.7646 -15.4310 58.6173 2.3999 0.3956 1.6011 -54.0682 22.2129 105.2424 -6.2646 53.4369 -14.4589 -5.0776 -18.7506 -2.6565 9.8624 -20.7474 22.8572 -15.0687 -17.7589 88.3247 5.0724 60.8920 -0.4152 -7.1138 -7.5702 1.7655 2.2247 -9.6019 -11.7881 
0.0000 93.1000 0.0000 63.3513 -38.1255 -20.1708 -70.8570 -1.6952 87.7178 94.2696 67.4102 -8.0617 1.7789 18.1238 -2.2516 -136.0167 26.3733 -180.2365 177.3382 63.5915 -148.4172 -2.3575 -21.3049 -22.2533 -65.2561 4.2017 -165.2557 16.5337 9.9878 -58.9499 0.2493 0.2150 0.3960 -5.1701 11.1345 46.2422 -70.5315 -2.6337 116.6957 19.1433 -8.1360 68.1416 1.1451 -0.4793 0.5345 -57.3127 22.6836 104.5278 -4.5202 48.0418 -9.5670 -6.2934 -14.6329 -1.0910 9.9236 -21.3914 20.2003 -17.7565 -17.1399 87.4375 3.8285 60.9142 -1.0594 -5.6982 -10.1796 -0.3416 1.1261 -9.4369 -8.4921 
0.0000 93.1000 0.0000 62.7281 -37.8061 -18.8003 -70.6586 0.4465 87.6782 92.2582 67.1411 -6.8418 2.1209 16.7971 0.5533 -134.2653 26.8450 177.5858 179.1115 65.3909 -147.9787 -0.5723 -19.5505 -20.8346 -69.2007 6.6986 -165.3777 15.0232 7.1203 -64.7401 0.4097 0.0240 0.7230 -3.2397 10.6524 42.6862 -76.4605 -5.9991 117.0647 17.4864 -4.7231 76.8849 1.1597 -0.3279 0.9051 -58.0070 23.9465 100.9480 -2.2931 44.3462 -4.8326 -7.0733 -8.6152 -1.7181 7.3045 -18.3417 17.5388 -20.2716 -14.0539 84.4180 4.1300 60.3068 -3.1429 -4.5019 -11.8126 1.6422 1.5133 -7.6656 -7.9873 
